<svg xmlns="http://www.w3.org/2000/svg" xmlns:xlink="http://www.w3.org/1999/xlink" width="1024" zoomAndPan="magnify" viewBox="0 0 768 767.999994" height="1024" preserveAspectRatio="xMidYMid meet" version="1.0"><defs><clipPath id="4609e45a83"><path d="M 98.445312 98.445312 L 669.195312 98.445312 L 669.195312 669.195312 L 98.445312 669.195312 Z M 98.445312 98.445312 " clip-rule="nonzero"/></clipPath></defs><g clip-path="url(#4609e45a83)"><path fill="#ffffff" d="M 226.839844 98.445312 L 540.464844 98.445312 C 575.910156 98.445312 608.007812 112.820312 631.410156 136.226562 C 654.484375 159.296875 669.195312 191.730469 669.195312 226.839844 L 669.195312 540.464844 C 669.195312 575.910156 654.484375 608.007812 631.410156 631.410156 C 608.007812 654.484375 575.910156 669.195312 540.464844 669.195312 L 226.839844 669.195312 C 191.730469 669.195312 159.296875 654.484375 136.226562 631.410156 C 112.820312 608.007812 98.445312 575.910156 98.445312 540.464844 L 98.445312 226.839844 C 98.445312 191.730469 112.820312 159.296875 136.226562 136.226562 C 159.296875 112.820312 191.730469 98.445312 226.839844 98.445312 Z M 540.464844 149.265625 L 226.839844 149.265625 C 205.4375 149.265625 186.046875 157.960938 172.003906 172.003906 C 157.960938 186.046875 149.265625 205.4375 149.265625 226.839844 L 149.265625 540.464844 C 149.265625 561.867188 157.960938 581.257812 172.003906 595.300781 C 186.046875 609.679688 205.4375 618.371094 226.839844 618.371094 L 540.464844 618.371094 C 561.867188 618.371094 581.257812 609.679688 595.300781 595.300781 C 609.679688 581.257812 618.371094 561.867188 618.371094 540.464844 L 618.371094 226.839844 C 618.371094 205.4375 609.679688 186.046875 595.300781 172.003906 C 581.257812 157.960938 561.867188 149.265625 540.464844 149.265625 Z M 540.464844 149.265625 " fill-opacity="1" fill-rule="nonzero"/></g><path fill="#ffffff" d="M 543.808594 198.082031 C 550.832031 198.082031 557.519531 200.757812 561.867188 205.4375 C 566.546875 210.121094 569.554688 216.472656 569.554688 223.496094 C 569.554688 230.515625 566.546875 237.203125 561.867188 241.550781 C 557.519531 246.230469 550.832031 249.238281 543.808594 249.238281 C 536.789062 249.238281 530.4375 246.230469 525.753906 241.550781 C 521.074219 237.203125 518.398438 230.515625 518.398438 223.496094 C 518.398438 216.472656 521.074219 210.121094 525.753906 205.4375 C 530.4375 200.757812 536.789062 198.082031 543.808594 198.082031 Z M 543.808594 198.082031 " fill-opacity="1" fill-rule="nonzero"/><path fill="#ffffff" d="M 383.652344 245.226562 C 422.105469 245.226562 456.542969 260.941406 481.621094 285.683594 C 506.695312 310.761719 522.410156 345.535156 522.410156 383.652344 C 522.410156 422.105469 506.695312 456.542969 481.621094 481.621094 C 456.542969 506.695312 422.105469 522.410156 383.652344 522.410156 C 345.535156 522.410156 310.761719 506.695312 285.683594 481.621094 C 260.941406 456.542969 245.226562 422.105469 245.226562 383.652344 C 245.226562 345.535156 260.941406 310.761719 285.683594 285.683594 C 310.761719 260.941406 345.535156 245.226562 383.652344 245.226562 Z M 445.507812 322.128906 C 429.792969 306.414062 407.726562 296.386719 383.652344 296.386719 C 359.578125 296.386719 337.84375 306.414062 322.128906 322.128906 C 306.414062 337.84375 296.386719 359.578125 296.386719 383.652344 C 296.386719 407.726562 306.414062 429.792969 322.128906 445.507812 C 337.84375 461.222656 359.578125 470.917969 383.652344 470.917969 C 407.726562 470.917969 429.792969 461.222656 445.507812 445.507812 C 461.222656 429.792969 470.917969 407.726562 470.917969 383.652344 C 470.917969 359.578125 461.222656 337.84375 445.507812 322.128906 Z M 445.507812 322.128906 " fill-opacity="1" fill-rule="nonzero"/></svg>