<svg xmlns="http://www.w3.org/2000/svg" xmlns:xlink="http://www.w3.org/1999/xlink" width="1024" zoomAndPan="magnify" viewBox="0 0 768 767.999994" height="1024" preserveAspectRatio="xMidYMid meet" version="1.0"><defs><clipPath id="5d903656f0"><path d="M 82 92 L 668 92 L 668 697.53125 L 82 697.53125 Z M 82 92 " clip-rule="nonzero"/></clipPath><clipPath id="9311aebb44"><path d="M 94 76 L 680 76 L 680 680.761719 L 94 680.761719 Z M 94 76 " clip-rule="nonzero"/></clipPath></defs><g clip-path="url(#5d903656f0)"><path fill="#ffffff" d="M 641.289062 630.351562 L 641.421875 630.351562 Z M 182.183594 120.691406 C 176.375 120.691406 170.882812 123.324219 164.917969 128.546875 C 164.265625 129.167969 155.730469 137.265625 150.175781 142.550781 L 145.328125 147.132812 C 117.007812 173.613281 104.167969 221.269531 112.617188 268.574219 C 115.335938 283.851562 119.722656 299.683594 125.664062 315.613281 C 155.597656 396.003906 212.417969 465.898438 254.828125 510.390625 C 297.039062 555.175781 363.804688 615.660156 442.460938 649.847656 C 458.066406 656.625 473.632812 661.859375 488.738281 665.402344 C 535.523438 676.359375 583.808594 666.09375 611.742188 639.238281 L 616.398438 634.8125 C 621.804688 629.710938 630.242188 621.71875 631.46875 620.542969 C 648.863281 602.648438 640.171875 587.773438 605.28125 552.289062 L 596.550781 543.328125 C 574.449219 520.390625 537.363281 481.984375 506.011719 485.730469 C 497.492188 486.738281 488.59375 492.957031 479.171875 499.527344 C 469.824219 506.050781 460.164062 512.789062 448.570312 516.464844 C 417.453125 526.332031 385.894531 519.847656 359.671875 498.242188 C 343.996094 485.320312 328.039062 470.199219 313.554688 454.5625 C 298.894531 439.457031 284.664062 422.726562 272.613281 406.394531 C 252.449219 379.070312 247.675781 347.207031 259.179688 316.65625 C 263.472656 305.273438 270.722656 295.984375 277.738281 287.003906 C 284.808594 277.945312 291.488281 269.398438 292.941406 260.9375 C 298.339844 229.753906 261.992188 190.753906 240.265625 167.441406 L 231.804688 158.25 C 208.78125 133.070312 194.777344 120.691406 182.183594 120.691406 Z M 526.488281 697.457031 C 510.851562 697.457031 495.816406 695.550781 482.410156 692.410156 C 465.691406 688.507812 448.523438 682.738281 431.394531 675.292969 C 348.421875 639.238281 278.625 576.097656 234.691406 529.484375 C 190.535156 483.171875 131.226562 410.09375 99.660156 325.300781 C 93.136719 307.804688 88.3125 290.359375 85.292969 273.449219 C 77.289062 228.628906 83.875 166.582031 126.378906 126.875 L 131.070312 122.414062 C 136.988281 116.800781 146.1875 108.058594 146.5625 107.734375 C 189.082031 70.40625 227.125 112 252.28125 139.53125 L 260.574219 148.527344 C 285.800781 175.601562 328.027344 220.917969 320.292969 265.664062 C 317.636719 280.976562 308.0625 293.257812 299.609375 304.085938 C 293.609375 311.757812 287.9375 319.019531 285.148438 326.441406 C 276.953125 348.191406 280.347656 370.144531 294.945312 389.917969 C 306.265625 405.253906 319.664062 421.003906 333.691406 435.46875 C 347.570312 450.453125 362.59375 464.671875 377.324219 476.832031 C 396.296875 492.472656 418.03125 497.019531 440.195312 490.023438 C 447.746094 487.609375 455.289062 482.347656 463.277344 476.773438 C 474.554688 468.914062 487.308594 459.992188 502.753906 458.175781 C 547.984375 452.839844 590.851562 497.429688 616.53125 524.078125 L 625.078125 532.832031 C 651.214844 559.429688 690.726562 599.632812 651.214844 640.050781 C 650.597656 640.644531 641.324219 649.445312 635.46875 654.976562 L 630.957031 659.253906 C 601.726562 687.355469 562.558594 697.457031 526.488281 697.457031 " fill-opacity="1" fill-rule="nonzero"/></g><g clip-path="url(#9311aebb44)"><path fill="#ffffff" d="M 653.289062 613.582031 L 653.421875 613.582031 Z M 194.183594 103.921875 C 188.375 103.921875 182.882812 106.554688 176.917969 111.78125 C 176.265625 112.398438 167.730469 120.496094 162.175781 125.78125 L 157.328125 130.363281 C 129.007812 156.84375 116.167969 204.5 124.617188 251.804688 C 127.335938 267.082031 131.722656 282.914062 137.664062 298.84375 C 167.597656 379.234375 224.417969 449.128906 266.828125 493.621094 C 309.039062 538.40625 375.804688 598.890625 454.460938 633.078125 C 470.066406 639.855469 485.632812 645.089844 500.738281 648.632812 C 547.523438 659.589844 595.808594 649.324219 623.742188 622.46875 L 628.398438 618.042969 C 633.804688 612.941406 642.242188 604.949219 643.46875 603.773438 C 660.863281 585.878906 652.171875 571.003906 617.28125 535.519531 L 608.550781 526.558594 C 586.449219 503.621094 549.363281 465.214844 518.011719 468.960938 C 509.492188 469.96875 500.59375 476.1875 491.171875 482.757812 C 481.824219 489.28125 472.164062 496.019531 460.570312 499.695312 C 429.453125 509.5625 397.894531 503.078125 371.671875 481.472656 C 355.996094 468.550781 340.039062 453.429688 325.554688 437.792969 C 310.894531 422.6875 296.664062 405.957031 284.613281 389.625 C 264.449219 362.300781 259.675781 330.4375 271.179688 299.886719 C 275.472656 288.503906 282.722656 279.21875 289.738281 270.234375 C 296.808594 261.175781 303.488281 252.628906 304.941406 244.167969 C 310.339844 212.984375 273.992188 173.984375 252.265625 150.671875 L 243.804688 141.480469 C 220.78125 116.300781 206.777344 103.921875 194.183594 103.921875 Z M 538.488281 680.6875 C 522.851562 680.6875 507.816406 678.78125 494.410156 675.644531 C 477.691406 671.738281 460.523438 665.96875 443.394531 658.523438 C 360.421875 622.46875 290.625 559.328125 246.691406 512.714844 C 202.535156 466.402344 143.226562 393.324219 111.660156 308.53125 C 105.136719 291.039062 100.3125 273.589844 97.292969 256.679688 C 89.289062 211.859375 95.875 149.8125 138.378906 110.105469 L 143.070312 105.644531 C 148.988281 100.03125 158.1875 91.289062 158.5625 90.964844 C 201.082031 53.636719 239.125 95.230469 264.28125 122.761719 L 272.574219 131.757812 C 297.800781 158.832031 340.027344 204.148438 332.292969 248.894531 C 329.636719 264.207031 320.0625 276.488281 311.609375 287.316406 C 305.609375 294.988281 299.9375 302.25 297.148438 309.671875 C 288.953125 331.421875 292.347656 353.375 306.945312 373.148438 C 318.265625 388.484375 331.664062 404.234375 345.691406 418.699219 C 359.570312 433.683594 374.59375 447.902344 389.324219 460.0625 C 408.296875 475.703125 430.03125 480.25 452.195312 473.253906 C 459.746094 470.839844 467.289062 465.578125 475.277344 460.003906 C 486.554688 452.144531 499.308594 443.222656 514.753906 441.40625 C 559.984375 436.070312 602.851562 480.660156 628.53125 507.308594 L 637.078125 516.0625 C 663.214844 542.660156 702.726562 582.863281 663.214844 623.28125 C 662.597656 623.875 653.324219 632.675781 647.46875 638.207031 L 642.957031 642.484375 C 613.726562 670.585938 574.558594 680.6875 538.488281 680.6875 " fill-opacity="1" fill-rule="nonzero"/></g></svg>