<svg xmlns="http://www.w3.org/2000/svg" xmlns:xlink="http://www.w3.org/1999/xlink" width="1024" zoomAndPan="magnify" viewBox="0 0 768 767.999994" height="1024" preserveAspectRatio="xMidYMid meet" version="1.0"><path fill="#ffffff" d="M 415.578125 384.082031 L 510.046875 289.613281 C 518.738281 280.917969 518.757812 266.800781 510.058594 258.105469 C 501.382812 249.425781 487.257812 249.414062 478.550781 258.117188 L 384.082031 352.585938 L 289.613281 258.117188 C 280.921875 249.425781 266.804688 249.40625 258.105469 258.105469 C 249.425781 266.78125 249.414062 280.90625 258.121094 289.613281 L 352.589844 384.082031 L 258.121094 478.550781 C 249.425781 487.242188 249.410156 501.359375 258.105469 510.058594 C 266.785156 518.738281 280.910156 518.75 289.613281 510.042969 L 384.082031 415.574219 L 478.550781 510.042969 C 487.246094 518.738281 501.363281 518.753906 510.058594 510.058594 C 518.738281 501.378906 518.75 487.253906 510.046875 478.550781 Z M 415.578125 384.082031 " fill-opacity="1" fill-rule="evenodd"/></svg>