<svg xmlns="http://www.w3.org/2000/svg" xmlns:xlink="http://www.w3.org/1999/xlink" width="1024" zoomAndPan="magnify" viewBox="0 0 768 767.999994" height="1024" preserveAspectRatio="xMidYMid meet" version="1.0"><defs><clipPath id="1c13b154b5"><path d="M 76.800781 154 L 691 154 L 691 614 L 76.800781 614 Z M 76.800781 154 " clip-rule="nonzero"/></clipPath></defs><g clip-path="url(#1c13b154b5)"><path fill="#ffffff" d="M 642.984375 613.96875 L 124.410156 613.96875 C 120.472656 613.457031 117.609375 613.015625 115.8125 612.640625 C 99.199219 609.144531 85.414062 596.136719 79.875 580.601562 C 78.21875 575.957031 77.601562 571.097656 76.800781 566.164062 L 76.800781 201 C 77.664062 198.652344 77.601562 196.015625 78.085938 194.015625 C 78.742188 191.289062 79.414062 188.238281 80.5 185.707031 C 87.503906 169.324219 99.726562 159.199219 117.167969 155.335938 C 118.773438 154.976562 120.382812 154.765625 121.992188 154.691406 C 124.160156 154.605469 126.273438 154.09375 128.464844 154.09375 C 297.410156 154.019531 468.15625 154.019531 640.710938 154.09375 C 642.03125 154.09375 643.339844 154.191406 644.632812 154.378906 C 645.925781 154.578125 647.222656 154.761719 648.53125 154.933594 C 653.050781 155.527344 657.039062 156.601562 660.507812 158.152344 C 677.019531 165.519531 689.210938 181.035156 690.421875 199.511719 C 690.621094 202.507812 690.921875 205.421875 690.90625 208.390625 C 690.210938 300.085938 690.59375 391.851562 690.601562 490.023438 C 690.601562 511.046875 691.15625 533.171875 690.859375 555.320312 C 690.769531 562.144531 690.613281 566.765625 690.386719 569.179688 C 689.019531 583.691406 682.171875 595.515625 669.84375 604.660156 C 663.96875 609.011719 657.40625 611.777344 650.152344 612.953125 C 647.769531 613.339844 645.378906 613.679688 642.984375 613.96875 Z M 374.722656 430.542969 C 382.523438 433.496094 391.683594 431.578125 397.738281 425.941406 C 451.257812 376.109375 504.472656 326.78125 557.378906 277.964844 C 587.941406 249.765625 618.238281 221.714844 648.273438 193.804688 C 648.734375 193.375 648.75 192.929688 648.316406 192.464844 C 647.632812 191.746094 646.617188 191.386719 645.265625 191.386719 C 470.023438 191.328125 296.902344 191.296875 125.90625 191.296875 C 122.554688 191.296875 120.636719 192.074219 118.371094 194.238281 C 118.042969 194.554688 118.050781 194.863281 118.390625 195.167969 C 120.21875 196.773438 122.050781 198.410156 123.882812 200.082031 C 144.277344 218.71875 167.15625 239.863281 192.507812 263.515625 C 246.9375 314.296875 299.765625 363.390625 350.984375 410.792969 C 355.53125 415 360.203125 419.316406 364.992188 423.730469 C 368.832031 427.273438 372.074219 429.546875 374.722656 430.542969 Z M 652.695312 242.5 C 652.695312 242.375 652.632812 242.265625 652.507812 242.167969 C 652.382812 242.066406 652.253906 242.0625 652.125 242.160156 C 647.90625 245.414062 644.519531 249.242188 640.503906 252.976562 C 597.039062 293.359375 552.441406 334.960938 506.722656 377.78125 C 506.289062 378.199219 505.828125 378.566406 505.339844 378.886719 C 504.644531 379.355469 504.617188 379.863281 505.257812 380.414062 C 506.78125 381.703125 508.128906 382.898438 509.300781 383.996094 C 534.015625 407.15625 560.621094 432.230469 589.117188 459.210938 C 594.625 464.425781 599.464844 469.082031 603.632812 473.175781 C 608.164062 477.625 612.976562 481.835938 617.5 486.277344 C 621.035156 489.75 624.496094 493.019531 627.878906 496.09375 C 633.515625 501.195312 638.667969 506.570312 644.332031 511.691406 C 647.011719 514.109375 649.609375 516.628906 652.125 519.242188 C 652.226562 519.355469 652.351562 519.398438 652.5 519.367188 C 652.730469 519.328125 652.847656 519.21875 652.847656 519.046875 C 652.851562 427.015625 652.847656 335.019531 652.828125 243.0625 C 652.828125 242.941406 652.800781 242.828125 652.75 242.722656 C 652.714844 242.65625 652.695312 242.582031 652.695312 242.5 Z M 115.632812 519.375 C 119.4375 515.578125 123.558594 511.566406 127.992188 507.347656 C 167.757812 469.527344 207.027344 432.023438 245.804688 394.839844 C 250.21875 390.605469 254.855469 386.226562 259.726562 381.695312 C 260.675781 380.816406 260.671875 379.941406 259.707031 379.074219 C 257.835938 377.375 256.058594 375.738281 254.375 374.160156 C 207.523438 330.289062 163.414062 289.191406 122.035156 250.871094 C 119.558594 248.578125 117.1875 246.367188 114.921875 244.238281 C 114.820312 244.144531 114.769531 244.144531 114.769531 244.238281 L 114.589844 518.941406 C 114.589844 519.925781 114.9375 520.074219 115.632812 519.375 Z M 385.777344 470.316406 C 367.152344 471.160156 352.125 464.410156 338.5 451.578125 C 326.097656 439.910156 310.792969 425.574219 292.585938 408.574219 C 291.820312 407.859375 290.992188 407.167969 290.105469 406.496094 C 289.84375 406.300781 289.550781 406.210938 289.226562 406.230469 C 288.902344 406.246094 288.625 406.363281 288.386719 406.582031 C 286.09375 408.660156 283.925781 410.996094 281.707031 413.109375 C 234.214844 458.476562 187.171875 503.519531 140.585938 548.242188 C 134.699219 553.894531 129.453125 558.828125 124.84375 563.035156 C 122.246094 565.414062 119.796875 567.757812 117.496094 570.070312 C 116.878906 570.695312 116.871094 571.328125 117.472656 571.96875 C 121.152344 575.894531 124.398438 575.625 130.347656 575.625 C 300.648438 575.625 470.945312 575.625 641.246094 575.625 C 645.445312 575.625 647.773438 575.207031 650.011719 571.808594 C 650.527344 571.019531 650.445312 570.300781 649.761719 569.660156 C 594.886719 517.746094 540.027344 465.773438 485.1875 413.746094 C 482.132812 410.84375 479.542969 408.226562 477.421875 405.898438 C 477.285156 405.75 477.128906 405.632812 476.949219 405.550781 C 476.765625 405.464844 476.578125 405.417969 476.378906 405.410156 C 476.179688 405.402344 475.984375 405.433594 475.796875 405.503906 C 475.609375 405.570312 475.445312 405.671875 475.296875 405.808594 C 459.835938 420.101562 444.488281 434.601562 429.160156 449.011719 C 423.28125 454.539062 418.730469 458.34375 415.507812 460.425781 C 406.019531 466.546875 396.109375 469.84375 385.777344 470.316406 Z M 385.777344 470.316406 " fill-opacity="1" fill-rule="nonzero"/></g></svg>