<svg xmlns="http://www.w3.org/2000/svg" xmlns:xlink="http://www.w3.org/1999/xlink" width="1024" zoomAndPan="magnify" viewBox="0 0 768 767.999994" height="1024" preserveAspectRatio="xMidYMid meet" version="1.0"><defs><clipPath id="490babfae7"><path d="M 76.800781 215 L 691.050781 215 L 691.050781 246 L 76.800781 246 Z M 76.800781 215 " clip-rule="nonzero"/></clipPath><clipPath id="c41ff3b657"><path d="M 76.800781 368 L 691.050781 368 L 691.050781 400 L 76.800781 400 Z M 76.800781 368 " clip-rule="nonzero"/></clipPath><clipPath id="c376010a13"><path d="M 76.800781 522 L 691.050781 522 L 691.050781 553 L 76.800781 553 Z M 76.800781 522 " clip-rule="nonzero"/></clipPath></defs><g clip-path="url(#490babfae7)"><path fill="#ffffff" d="M 677.828125 245.757812 L 90.164062 245.757812 C 82.789062 245.757812 76.800781 237.773438 76.800781 230.398438 C 76.800781 223.027344 82.789062 215.039062 90.164062 215.039062 L 677.828125 215.039062 C 685.199219 215.039062 691.191406 223.027344 691.191406 230.398438 C 691.191406 237.773438 685.199219 245.757812 677.828125 245.757812 Z M 677.828125 245.757812 " fill-opacity="1" fill-rule="nonzero"/></g><g clip-path="url(#c41ff3b657)"><path fill="#ffffff" d="M 677.828125 399.355469 L 90.164062 399.355469 C 82.789062 399.355469 76.800781 391.371094 76.800781 383.996094 C 76.800781 376.625 82.789062 368.636719 90.164062 368.636719 L 677.828125 368.636719 C 685.199219 368.636719 691.191406 376.625 691.191406 383.996094 C 691.191406 391.371094 685.199219 399.355469 677.828125 399.355469 Z M 677.828125 399.355469 " fill-opacity="1" fill-rule="nonzero"/></g><g clip-path="url(#c376010a13)"><path fill="#ffffff" d="M 677.828125 552.953125 L 90.164062 552.953125 C 82.789062 552.953125 76.800781 544.96875 76.800781 537.59375 C 76.800781 530.222656 82.789062 522.234375 90.164062 522.234375 L 677.828125 522.234375 C 685.199219 522.234375 691.191406 530.222656 691.191406 537.59375 C 691.191406 544.96875 685.199219 552.953125 677.828125 552.953125 Z M 677.828125 552.953125 " fill-opacity="1" fill-rule="nonzero"/></g></svg>