<svg xmlns="http://www.w3.org/2000/svg" xmlns:xlink="http://www.w3.org/1999/xlink" width="1024" zoomAndPan="magnify" viewBox="0 0 768 767.999994" height="1024" preserveAspectRatio="xMidYMid meet" version="1.0"><defs><clipPath id="01bcf2967e"><path d="M 76.800781 114.433594 L 691.050781 114.433594 L 691.050781 653 L 76.800781 653 Z M 76.800781 114.433594 " clip-rule="nonzero"/></clipPath></defs><g clip-path="url(#01bcf2967e)"><path fill="#ffffff" d="M 383.996094 114.664062 C 214.609375 114.664062 76.800781 218.011719 76.800781 345.058594 C 76.800781 406.933594 110.210938 466.292969 168.898438 509.476562 L 153.75 630.671875 C 153.640625 631.550781 153.589844 632.429688 153.601562 633.308594 C 153.613281 634.191406 153.6875 635.070312 153.820312 635.941406 C 153.953125 636.8125 154.144531 637.671875 154.394531 638.519531 C 154.648438 639.363281 154.953125 640.1875 155.320312 640.992188 C 155.683594 641.796875 156.101562 642.570312 156.574219 643.316406 C 157.046875 644.0625 157.566406 644.769531 158.136719 645.445312 C 158.707031 646.117188 159.316406 646.75 159.976562 647.339844 C 160.632812 647.929688 161.324219 648.46875 162.054688 648.964844 C 162.789062 649.457031 163.550781 649.898438 164.339844 650.289062 C 165.132812 650.675781 165.949219 651.007812 166.785156 651.285156 C 167.625 651.5625 168.476562 651.78125 169.34375 651.9375 C 170.210938 652.097656 171.085938 652.195312 171.96875 652.234375 C 172.847656 652.273438 173.730469 652.25 174.609375 652.167969 C 175.484375 652.082031 176.355469 651.941406 177.214844 651.738281 C 178.070312 651.535156 178.914062 651.273438 179.734375 650.957031 C 180.558594 650.636719 181.355469 650.261719 182.125 649.835938 L 324.136719 570.9375 C 343.976562 573.917969 363.929688 575.425781 383.996094 575.457031 C 553.378906 575.457031 691.191406 472.105469 691.191406 345.058594 C 691.191406 218.011719 553.378906 114.664062 383.996094 114.664062 Z M 383.996094 537.054688 C 363.765625 537.011719 343.671875 535.332031 323.714844 532.015625 C 321.578125 531.667969 319.4375 531.675781 317.304688 532.046875 C 315.167969 532.417969 313.152344 533.128906 311.257812 534.175781 L 196.546875 597.894531 L 208.433594 502.796875 C 208.542969 501.921875 208.589844 501.042969 208.578125 500.160156 C 208.566406 499.277344 208.496094 498.398438 208.363281 497.523438 C 208.230469 496.652344 208.035156 495.792969 207.785156 494.945312 C 207.535156 494.101562 207.226562 493.277344 206.859375 492.472656 C 206.496094 491.667969 206.078125 490.894531 205.605469 490.148438 C 205.132812 489.402344 204.613281 488.691406 204.042969 488.015625 C 203.472656 487.34375 202.859375 486.710938 202.199219 486.121094 C 201.542969 485.53125 200.847656 484.992188 200.117188 484.496094 C 145.359375 447.582031 115.199219 398.066406 115.199219 345.058594 C 115.199219 239.199219 235.777344 153.0625 383.996094 153.0625 C 532.210938 153.0625 652.792969 239.199219 652.792969 345.058594 C 652.792969 450.921875 532.210938 537.054688 383.996094 537.054688 Z M 383.996094 537.054688 " fill-opacity="1" fill-rule="nonzero"/></g><path fill="#ffffff" d="M 287.996094 345.058594 C 287.996094 346.316406 287.933594 347.570312 287.8125 348.824219 C 287.6875 350.074219 287.503906 351.316406 287.257812 352.550781 C 287.011719 353.785156 286.707031 355.003906 286.34375 356.207031 C 285.976562 357.410156 285.554688 358.59375 285.074219 359.753906 C 284.59375 360.914062 284.054688 362.050781 283.460938 363.160156 C 282.871094 364.269531 282.222656 365.347656 281.523438 366.390625 C 280.828125 367.4375 280.078125 368.445312 279.28125 369.417969 C 278.484375 370.390625 277.640625 371.320312 276.75 372.210938 C 275.859375 373.101562 274.929688 373.945312 273.957031 374.742188 C 272.984375 375.539062 271.976562 376.289062 270.929688 376.988281 C 269.886719 377.6875 268.808594 378.332031 267.699219 378.925781 C 266.589844 379.515625 265.453125 380.054688 264.292969 380.535156 C 263.128906 381.015625 261.949219 381.441406 260.742188 381.804688 C 259.539062 382.171875 258.320312 382.476562 257.089844 382.71875 C 255.855469 382.964844 254.613281 383.148438 253.359375 383.273438 C 252.109375 383.398438 250.855469 383.457031 249.597656 383.457031 C 248.339844 383.457031 247.085938 383.398438 245.832031 383.273438 C 244.582031 383.148438 243.339844 382.964844 242.105469 382.71875 C 240.871094 382.476562 239.652344 382.171875 238.449219 381.804688 C 237.246094 381.441406 236.0625 381.015625 234.902344 380.535156 C 233.742188 380.054688 232.605469 379.515625 231.496094 378.925781 C 230.386719 378.332031 229.308594 377.6875 228.265625 376.988281 C 227.21875 376.289062 226.210938 375.539062 225.238281 374.742188 C 224.265625 373.945312 223.335938 373.101562 222.445312 372.210938 C 221.554688 371.320312 220.710938 370.390625 219.914062 369.417969 C 219.117188 368.445312 218.367188 367.4375 217.667969 366.390625 C 216.96875 365.347656 216.324219 364.269531 215.730469 363.160156 C 215.140625 362.050781 214.601562 360.914062 214.121094 359.753906 C 213.640625 358.59375 213.214844 357.410156 212.851562 356.207031 C 212.484375 355.003906 212.179688 353.785156 211.9375 352.550781 C 211.691406 351.316406 211.507812 350.074219 211.382812 348.824219 C 211.257812 347.570312 211.199219 346.316406 211.199219 345.058594 C 211.199219 343.800781 211.257812 342.546875 211.382812 341.296875 C 211.507812 340.042969 211.691406 338.800781 211.9375 337.566406 C 212.179688 336.335938 212.484375 335.117188 212.851562 333.914062 C 213.214844 332.707031 213.640625 331.527344 214.121094 330.363281 C 214.601562 329.203125 215.140625 328.066406 215.730469 326.957031 C 216.324219 325.847656 216.96875 324.769531 217.667969 323.726562 C 218.367188 322.679688 219.117188 321.671875 219.914062 320.699219 C 220.710938 319.726562 221.554688 318.796875 222.445312 317.90625 C 223.335938 317.015625 224.265625 316.171875 225.238281 315.375 C 226.210938 314.578125 227.21875 313.828125 228.265625 313.132812 C 229.308594 312.433594 230.386719 311.785156 231.496094 311.195312 C 232.605469 310.601562 233.742188 310.0625 234.902344 309.582031 C 236.0625 309.101562 237.246094 308.679688 238.449219 308.3125 C 239.652344 307.949219 240.871094 307.644531 242.105469 307.398438 C 243.339844 307.152344 244.582031 306.96875 245.832031 306.84375 C 247.085938 306.722656 248.339844 306.660156 249.597656 306.660156 C 250.855469 306.660156 252.109375 306.722656 253.359375 306.84375 C 254.613281 306.96875 255.855469 307.152344 257.089844 307.398438 C 258.320312 307.644531 259.539062 307.949219 260.742188 308.3125 C 261.949219 308.679688 263.128906 309.101562 264.292969 309.582031 C 265.453125 310.0625 266.589844 310.601562 267.699219 311.195312 C 268.808594 311.785156 269.886719 312.433594 270.929688 313.132812 C 271.976562 313.828125 272.984375 314.578125 273.957031 315.375 C 274.929688 316.171875 275.859375 317.015625 276.75 317.90625 C 277.640625 318.796875 278.484375 319.726562 279.28125 320.699219 C 280.078125 321.671875 280.828125 322.679688 281.523438 323.726562 C 282.222656 324.769531 282.871094 325.847656 283.460938 326.957031 C 284.054688 328.066406 284.59375 329.203125 285.074219 330.363281 C 285.554688 331.527344 285.976562 332.707031 286.34375 333.914062 C 286.707031 335.117188 287.011719 336.335938 287.257812 337.566406 C 287.503906 338.800781 287.6875 340.042969 287.8125 341.296875 C 287.933594 342.546875 287.996094 343.800781 287.996094 345.058594 Z M 287.996094 345.058594 " fill-opacity="1" fill-rule="nonzero"/><path fill="#ffffff" d="M 422.394531 345.058594 C 422.394531 346.316406 422.332031 347.570312 422.210938 348.824219 C 422.085938 350.074219 421.902344 351.316406 421.65625 352.550781 C 421.410156 353.785156 421.105469 355.003906 420.742188 356.207031 C 420.375 357.410156 419.953125 358.59375 419.472656 359.753906 C 418.992188 360.914062 418.453125 362.050781 417.859375 363.160156 C 417.269531 364.269531 416.621094 365.347656 415.921875 366.390625 C 415.222656 367.4375 414.476562 368.445312 413.679688 369.417969 C 412.878906 370.390625 412.035156 371.320312 411.148438 372.210938 C 410.257812 373.101562 409.328125 373.945312 408.355469 374.742188 C 407.382812 375.539062 406.375 376.289062 405.328125 376.988281 C 404.28125 377.6875 403.207031 378.332031 402.097656 378.925781 C 400.988281 379.515625 399.851562 380.054688 398.691406 380.535156 C 397.527344 381.015625 396.34375 381.441406 395.140625 381.804688 C 393.9375 382.171875 392.71875 382.476562 391.488281 382.71875 C 390.253906 382.964844 389.011719 383.148438 387.757812 383.273438 C 386.507812 383.398438 385.253906 383.457031 383.996094 383.457031 C 382.738281 383.457031 381.484375 383.398438 380.230469 383.273438 C 378.980469 383.148438 377.738281 382.964844 376.503906 382.71875 C 375.269531 382.476562 374.050781 382.171875 372.847656 381.804688 C 371.644531 381.441406 370.460938 381.015625 369.300781 380.535156 C 368.136719 380.054688 367.003906 379.515625 365.894531 378.925781 C 364.785156 378.332031 363.707031 377.6875 362.660156 376.988281 C 361.617188 376.289062 360.605469 375.539062 359.636719 374.742188 C 358.664062 373.945312 357.730469 373.101562 356.84375 372.210938 C 355.953125 371.320312 355.109375 370.390625 354.3125 369.417969 C 353.515625 368.445312 352.765625 367.4375 352.066406 366.390625 C 351.367188 365.347656 350.722656 364.269531 350.128906 363.160156 C 349.539062 362.050781 349 360.914062 348.519531 359.753906 C 348.039062 358.59375 347.613281 357.410156 347.25 356.207031 C 346.882812 355.003906 346.578125 353.785156 346.332031 352.550781 C 346.089844 351.316406 345.902344 350.074219 345.78125 348.824219 C 345.65625 347.570312 345.597656 346.316406 345.597656 345.058594 C 345.597656 343.800781 345.65625 342.546875 345.78125 341.296875 C 345.902344 340.042969 346.089844 338.800781 346.332031 337.566406 C 346.578125 336.335938 346.882812 335.117188 347.25 333.914062 C 347.613281 332.707031 348.039062 331.527344 348.519531 330.363281 C 349 329.203125 349.539062 328.066406 350.128906 326.957031 C 350.722656 325.847656 351.367188 324.769531 352.066406 323.726562 C 352.765625 322.679688 353.515625 321.671875 354.3125 320.699219 C 355.109375 319.726562 355.953125 318.796875 356.84375 317.90625 C 357.730469 317.015625 358.664062 316.171875 359.636719 315.375 C 360.605469 314.578125 361.617188 313.828125 362.660156 313.132812 C 363.707031 312.433594 364.785156 311.785156 365.894531 311.195312 C 367.003906 310.601562 368.136719 310.0625 369.300781 309.582031 C 370.460938 309.101562 371.644531 308.679688 372.847656 308.3125 C 374.050781 307.949219 375.269531 307.644531 376.503906 307.398438 C 377.738281 307.152344 378.980469 306.96875 380.230469 306.84375 C 381.484375 306.722656 382.738281 306.660156 383.996094 306.660156 C 385.253906 306.660156 386.507812 306.722656 387.757812 306.84375 C 389.011719 306.96875 390.253906 307.152344 391.488281 307.398438 C 392.71875 307.644531 393.9375 307.949219 395.140625 308.3125 C 396.34375 308.679688 397.527344 309.101562 398.691406 309.582031 C 399.851562 310.0625 400.988281 310.601562 402.097656 311.195312 C 403.207031 311.785156 404.28125 312.433594 405.328125 313.132812 C 406.375 313.828125 407.382812 314.578125 408.355469 315.375 C 409.328125 316.171875 410.257812 317.015625 411.148438 317.90625 C 412.035156 318.796875 412.878906 319.726562 413.679688 320.699219 C 414.476562 321.671875 415.222656 322.679688 415.921875 323.726562 C 416.621094 324.769531 417.269531 325.847656 417.859375 326.957031 C 418.453125 328.066406 418.992188 329.203125 419.472656 330.363281 C 419.953125 331.527344 420.375 332.707031 420.742188 333.914062 C 421.105469 335.117188 421.410156 336.335938 421.65625 337.566406 C 421.902344 338.800781 422.085938 340.042969 422.210938 341.296875 C 422.332031 342.546875 422.394531 343.800781 422.394531 345.058594 Z M 422.394531 345.058594 " fill-opacity="1" fill-rule="nonzero"/><path fill="#ffffff" d="M 556.792969 345.058594 C 556.792969 346.316406 556.730469 347.570312 556.609375 348.824219 C 556.484375 350.074219 556.300781 351.316406 556.054688 352.550781 C 555.808594 353.785156 555.503906 355.003906 555.140625 356.207031 C 554.773438 357.410156 554.351562 358.59375 553.871094 359.753906 C 553.386719 360.914062 552.851562 362.050781 552.257812 363.160156 C 551.664062 364.269531 551.019531 365.347656 550.320312 366.390625 C 549.621094 367.4375 548.875 368.445312 548.078125 369.417969 C 547.277344 370.390625 546.433594 371.320312 545.546875 372.210938 C 544.65625 373.101562 543.726562 373.945312 542.753906 374.742188 C 541.78125 375.539062 540.773438 376.289062 539.726562 376.988281 C 538.679688 377.6875 537.605469 378.332031 536.496094 378.925781 C 535.386719 379.515625 534.25 380.054688 533.089844 380.535156 C 531.925781 381.015625 530.742188 381.441406 529.539062 381.804688 C 528.335938 382.171875 527.117188 382.476562 525.882812 382.71875 C 524.652344 382.964844 523.410156 383.148438 522.15625 383.273438 C 520.90625 383.398438 519.652344 383.457031 518.394531 383.457031 C 517.136719 383.457031 515.882812 383.398438 514.628906 383.273438 C 513.378906 383.148438 512.136719 382.964844 510.902344 382.71875 C 509.667969 382.476562 508.449219 382.171875 507.246094 381.804688 C 506.042969 381.441406 504.859375 381.015625 503.699219 380.535156 C 502.535156 380.054688 501.402344 379.515625 500.292969 378.925781 C 499.183594 378.332031 498.105469 377.6875 497.058594 376.988281 C 496.015625 376.289062 495.003906 375.539062 494.03125 374.742188 C 493.0625 373.945312 492.128906 373.101562 491.242188 372.210938 C 490.351562 371.320312 489.507812 370.390625 488.710938 369.417969 C 487.914062 368.445312 487.164062 367.4375 486.464844 366.390625 C 485.765625 365.347656 485.121094 364.269531 484.527344 363.160156 C 483.933594 362.050781 483.398438 360.914062 482.917969 359.753906 C 482.433594 358.59375 482.011719 357.410156 481.648438 356.207031 C 481.28125 355.003906 480.976562 353.785156 480.730469 352.550781 C 480.484375 351.316406 480.300781 350.074219 480.179688 348.824219 C 480.054688 347.570312 479.992188 346.316406 479.992188 345.058594 C 479.992188 343.800781 480.054688 342.546875 480.179688 341.296875 C 480.300781 340.042969 480.484375 338.800781 480.730469 337.566406 C 480.976562 336.335938 481.28125 335.117188 481.648438 333.914062 C 482.011719 332.707031 482.433594 331.527344 482.917969 330.363281 C 483.398438 329.203125 483.933594 328.066406 484.527344 326.957031 C 485.121094 325.847656 485.765625 324.769531 486.464844 323.726562 C 487.164062 322.679688 487.914062 321.671875 488.710938 320.699219 C 489.507812 319.726562 490.351562 318.796875 491.242188 317.90625 C 492.128906 317.015625 493.0625 316.171875 494.03125 315.375 C 495.003906 314.578125 496.015625 313.828125 497.058594 313.132812 C 498.105469 312.433594 499.183594 311.785156 500.292969 311.195312 C 501.402344 310.601562 502.535156 310.0625 503.699219 309.582031 C 504.859375 309.101562 506.042969 308.679688 507.246094 308.3125 C 508.449219 307.949219 509.667969 307.644531 510.902344 307.398438 C 512.136719 307.152344 513.378906 306.96875 514.628906 306.84375 C 515.882812 306.722656 517.136719 306.660156 518.394531 306.660156 C 519.652344 306.660156 520.90625 306.722656 522.15625 306.84375 C 523.410156 306.96875 524.652344 307.152344 525.882812 307.398438 C 527.117188 307.644531 528.335938 307.949219 529.539062 308.3125 C 530.742188 308.679688 531.925781 309.101562 533.089844 309.582031 C 534.25 310.0625 535.386719 310.601562 536.496094 311.195312 C 537.605469 311.785156 538.679688 312.433594 539.726562 313.132812 C 540.773438 313.828125 541.78125 314.578125 542.753906 315.375 C 543.726562 316.171875 544.65625 317.015625 545.546875 317.90625 C 546.433594 318.796875 547.277344 319.726562 548.078125 320.699219 C 548.875 321.671875 549.621094 322.679688 550.320312 323.726562 C 551.019531 324.769531 551.664062 325.847656 552.257812 326.957031 C 552.851562 328.066406 553.386719 329.203125 553.871094 330.363281 C 554.351562 331.527344 554.773438 332.707031 555.140625 333.914062 C 555.503906 335.117188 555.808594 336.335938 556.054688 337.566406 C 556.300781 338.800781 556.484375 340.042969 556.609375 341.296875 C 556.730469 342.546875 556.792969 343.800781 556.792969 345.058594 Z M 556.792969 345.058594 " fill-opacity="1" fill-rule="nonzero"/></svg>